#!OML:ASF E:\Style6\Style6.ASF
:FULLY-SPECIFIED
:DEGREES
2845
root 0.164024 18.0514 -0.648154 39.2002 -2.7453 -1.33588
lowerback 22.144 -2.10192 7.21865
upperback 4.87084 -0.82776 3.32025
thorax -7.06023 -0.506717 -0.266767
lowerneck 2.78818 8.03286 3.47535
upperneck -27.3942 6.70103 -22.7604
head -7.74644 5.26026 -8.9668
rclavicle -6.75868e-015 -1.74931e-014
rhumerus 24.8351 12.6635 -85.0569
rradius 26.4473
rwrist 41.2199
rhand -7.17906 4.0482
rfingers 7.12502
rthumb 18.6986 -25.0731
lclavicle -6.75868e-015 -1.74931e-014
lhumerus 23.1484 -17.5593 79.5823
lradius 31.188
lwrist -10.5356
lhand -6.04883 22.5028
lfingers 7.12502
lthumb 19.7854 51.5158
rfemur -49.5049 9.86521 11.3846
rtibia 8.54606
rfoot 2.70742 -23.2893
rtoes 5.36494
lfemur -56.9326 -29.7648 13.8945
ltibia 18.4108
lfoot -27.4071 44.108
ltoes 30.43
2846
root 0.166596 18.0518 -0.646492 39.2226 -2.59973 -1.35667
lowerback 22.0788 -2.11145 7.22529
upperback 4.83999 -0.84208 3.32449
thorax -7.06107 -0.513889 -0.262834
lowerneck 2.69248 8.04147 3.40553
upperneck -27.0585 6.77754 -22.6499
head -7.61444 5.27432 -8.87488
rclavicle 7.95139e-016 2.24627e-014
rhumerus 24.71 12.4395 -85.2779
rradius 26.3761
rwrist 41.2135
rhand -7.20996 4.01161
rfingers 7.12502
rthumb 18.6689 -25.1125
lclavicle 7.95139e-016 2.24627e-014
lhumerus 23.0724 -17.7762 79.4487
lradius 31.278
lwrist -10.4633
lhand -5.94902 22.5368
lfingers 7.12502
lthumb 19.8814 51.5398
rfemur -49.4694 9.77492 11.5012
rtibia 8.52611
rfoot 2.66853 -23.24
rtoes 5.30459
lfemur -57.1403 -30.0982 14.372
ltibia 18.3363
lfoot -27.8529 44.3622
ltoes 30.6625
2847
root 0.169899 18.0524 -0.645493 39.2422 -2.52655 -1.31188
lowerback 22.0368 -2.08793 7.15111
upperback 4.81336 -0.830545 3.32309
thorax -7.06735 -0.507513 -0.226296
lowerneck 2.49151 8.04014 3.21634
upperneck -26.6021 6.8601 -22.4636
head -7.4345 5.28529 -8.71779
rclavicle 1.19271e-014 -2.5842e-015
rhumerus 24.5865 12.1216 -85.4904
rradius 26.3072
rwrist 41.283
rhand -7.33123 4.01104
rfingers 7.12502
rthumb 18.5522 -25.1243
lclavicle 1.19271e-014 -2.5842e-015
lhumerus 23.0545 -18.0663 79.2983
lradius 31.3769
lwrist -10.327
lhand -5.85977 22.602
lfingers 7.12502
lthumb 19.9672 51.5962
rfemur -49.4376 9.68758 11.5112
rtibia 8.48557
rfoot 2.74114 -23.2169
rtoes 5.26253
lfemur -57.5668 -30.8068 15.226
ltibia 18.2699
lfoot -29.5561 44.6027
ltoes 32.3158
2848
root 0.172834 18.0534 -0.645732 39.2588 -2.37484 -1.32133
lowerback 21.9934 -2.08415 7.1651
upperback 4.80223 -0.823107 3.35486
thorax -7.05623 -0.503792 -0.202444
lowerneck 2.40125 8.03957 3.06075
upperneck -26.2394 6.92081 -22.3348
head -7.30576 5.29703 -8.60524
rclavicle 1.31198e-014 -4.96962e-015
rhumerus 24.5272 11.7843 -85.6961
rradius 26.2535
rwrist 41.5016
rhand -7.40573 3.92295
rfingers 7.12502
rthumb 18.4806 -25.2192
lclavicle 1.31198e-014 -4.96962e-015
lhumerus 23.0685 -18.37 79.1474
lradius 31.4587
lwrist -10.1296
lhand -5.88512 22.7525
lfingers 7.12502
lthumb 19.9428 51.7492
rfemur -49.393 9.58871 11.6261
rtibia 8.46209
rfoot 2.6183 -23.221
rtoes 5.73173
lfemur -57.8161 -31.1676 15.7596
ltibia 18.1957
lfoot -30.3245 44.6986
ltoes 32.929
2849
root 0.175229 18.0535 -0.645702 39.2596 -2.25042 -1.33043
lowerback 21.9478 -2.06807 7.12434
upperback 4.81758 -0.814325 3.38548
thorax -7.0143 -0.497436 -0.150098
lowerneck 2.35318 8.05438 3.06403
upperneck -25.8809 6.98751 -22.3696
head -7.16643 5.31421 -8.58183
rclavicle 1.59028e-015 7.15625e-015
rhumerus 24.554 11.5876 -85.8181
rradius 26.1882
rwrist 41.4827
rhand -7.2575 3.79959
rfingers 7.12502
rthumb 18.6231 -25.329
lclavicle 1.59028e-015 7.15625e-015
lhumerus 23.1169 -18.5776 79.0349
lradius 31.4851
lwrist -10.0248
lhand -5.78107 22.7536
lfingers 7.12502
lthumb 20.0428 51.7398
rfemur -49.3533 9.51314 11.7258
rtibia 8.45682
rfoot 2.54569 -23.2673
rtoes 5.99099
lfemur -57.8182 -31.1811 15.8096
ltibia 18.1181
lfoot -30.166 44.7175
ltoes 32.6543
2850
root 0.17841 18.0542 -0.644128 39.2684 -2.18307 -1.2841
lowerback 21.8479 -2.0531 7.04323
upperback 4.84538 -0.827534 3.35089
thorax -6.93197 -0.500078 -0.141757
lowerneck 2.27751 8.07369 3.20675
upperneck -25.454 7.07216 -22.4792
head -6.984 5.32929 -8.60064
rclavicle 3.97569e-016 5.96354e-016
rhumerus 24.5398 11.4412 -85.9562
rradius 26.2008
rwrist 41.3137
rhand -7.14715 3.74548
rfingers 7.12502
rthumb 18.7293 -25.3729
lclavicle 3.97569e-016 5.96354e-016
lhumerus 23.2249 -18.7692 78.8539
lradius 31.4452
lwrist -10.0092
lhand -5.74022 22.8141
lfingers 7.12502
lthumb 20.0821 51.7962
rfemur -49.3189 9.42826 11.7305
rtibia 8.42113
rfoot 2.4593 -23.3023
rtoes 6.46957
lfemur -57.8663 -31.2701 15.8677
ltibia 18.062
lfoot -30.3515 44.6471
ltoes 33.061
2851
root 0.180878 18.0564 -0.641896 39.2411 -2.1227 -1.24867
lowerback 21.7989 -2.0469 6.98844
upperback 4.87109 -0.842651 3.29301
thorax -6.87925 -0.504898 -0.171699
lowerneck 2.31155 8.08875 3.31521
upperneck -25.1277 7.14259 -22.5292
head -6.86364 5.34479 -8.6093
rclavicle -1.82882e-014 -3.81667e-014
rhumerus 24.4918 11.3227 -86.0885
rradius 26.1981
rwrist 41.1456
rhand -7.11303 3.72479
rfingers 7.12502
rthumb 18.7621 -25.3904
lclavicle -1.82882e-014 -3.81667e-014
lhumerus 23.2814 -18.8916 78.7206
lradius 31.3961
lwrist -10.1554
lhand -5.72497 22.8724
lfingers 7.12502
lthumb 20.0967 51.853
rfemur -49.2605 9.36804 11.7509
rtibia 8.42154
rfoot 2.49888 -23.293
rtoes 6.36078
lfemur -57.8799 -31.3884 15.9323
ltibia 18.0067
lfoot -30.6239 44.5904
ltoes 33.6353
2852
root 0.183953 18.0589 -0.640863 39.1933 -1.98793 -1.28383
lowerback 21.7748 -2.052 7.07058
upperback 4.90052 -0.836555 3.27811
thorax -6.83482 -0.501813 -0.237158
lowerneck 2.49375 8.05459 3.31527
upperneck -24.9073 7.11656 -22.5462
head -6.82937 5.33173 -8.60722
rclavicle -6.36111e-015 1.82882e-014
rhumerus 24.4413 11.1181 -86.2255
rradius 26.173
rwrist 41.1043
rhand -7.11095 3.70859
rfingers 7.12502
rthumb 18.7641 -25.4064
lclavicle -6.36111e-015 1.82882e-014
lhumerus 23.3287 -18.984 78.6962
lradius 31.353
lwrist -10.2513
lhand -5.75322 22.8026
lfingers 7.12502
lthumb 20.0696 51.7861
rfemur -49.1568 9.30364 11.8816
rtibia 8.40489
rfoot 2.27518 -23.3386
rtoes 7.16551
lfemur -57.8562 -31.4386 16.0133
ltibia 17.9671
lfoot -30.6586 44.5165
ltoes 33.7406
2853
root 0.188005 18.0583 -0.641507 39.1918 -1.83045 -1.27363
lowerback 21.6878 -2.04768 7.16338
upperback 4.94031 -0.822527 3.27054
thorax -6.74561 -0.493778 -0.304589
lowerneck 2.49991 8.00117 3.26057
upperneck -24.4876 7.09467 -22.5324
head -6.70254 5.30478 -8.55606
rclavicle 1.47101e-014 1.76918e-014
rhumerus 24.434 10.7595 -86.4212
rradius 26.1292
rwrist 41.263
rhand -7.08021 3.7345
rfingers 7.12502
rthumb 18.7937 -25.3776
lclavicle 1.47101e-014 1.76918e-014
lhumerus 23.438 -19.1156 78.6918
lradius 31.3374
lwrist -10.2253
lhand -5.7422 22.7807
lfingers 7.12502
lthumb 20.0802 51.763
rfemur -49.0892 9.18264 11.9814
rtibia 8.36205
rfoot 2.15543 -23.362
rtoes 7.5538
lfemur -57.8076 -31.2999 15.8487
ltibia 17.9436
lfoot -29.9682 44.471
ltoes 33.1481
